Format                           : Matroska
File size                        : 320 MiB
Duration                         : 1h 38mn
Overall bit rate                 : 454 Kbps
Movie name                       : Unstoppable 2010 R5 Hindi x264 - Henry Kharay
Encoded date                     : UTC 2010-12-22 02:45:24
Writing application              : mkvmerge v4.2.0 ('No Talking') built on Jul 28 2010 18:38:23
Writing library                  : libebml v1.0.0 + libmatroska v1.0.0
===================================================================================
Video
ID                               : 1
Format                           : AVC
Format/Info                      : Advanced Video Codec
Format profile                   : High@L3.0
Format settings, CABAC           : Yes
Format settings, ReFrames        : 4 frames
Muxing mode                      : Container profile=Unknown@3.0
Codec ID                         : V_MPEG4/ISO/AVC
Duration                         : 1h 38mn
Bit rate                         : 423 Kbps
Width                            : 720 pixels
Height                           : 304 pixels
Display aspect ratio             : 2.35:1
Frame rate                       : 24.000 fps
Color space                      : YUV
Chroma subsampling               : 4:2:0
Bit depth                        : 8 bits
Scan type                        : Progressive
Bits/(Pixel*Frame)               : 0.081
Stream size                      : 291 MiB (91%)
Title                            : Ripped By Henry
Writing library                  : x264 
===================================================================================
Audio
ID                               : 2
Format                           : MPEG Audio
Format version                   : Version 2
Format profile                   : Layer 3
Codec ID                         : A_MPEG/L3
Codec ID/Hint                    : MP3
Duration                         : 1h 38mn
Bit rate mode                    : Constant
Bit rate                         : 32.0 Kbps
Channel(s)                       : 1 channel
Sampling rate                    : 22.05 KHz
Stream size                      : 22.5 MiB (7%)
Title                            : Henry
Language                         : Hindi

Screens: 
http://leetleech.org/images/84438426075866764403.png 
http://leetleech.org/images/77494936474148751532.png 
http://leetleech.org/images/56614447917309044677.png 
http://ihttp://leetleech.org/images/68336937687572121996.png 
http://leetleech.org/images/68336937687572121996.png 
http://leetleech.org/images/31090320961401273943.png 
http://img843.imageshack.us/img843/8459/unstoppable2010r5hindib.jpg

keep Seeding
thnx